<mxfile host="app.diagrams.net" modified="2023-08-31T12:54:03.465Z" agent="Mozilla/5.0 (Windows NT 10.0; Win64; x64; rv:109.0) Gecko/20100101 Firefox/117.0" etag="leHvTt4V_St8P9d-ldmm" version="21.7.0" type="github">
  <diagram name="Страница — 1" id="XvLQQYulOv0tRLKGQwSg">
    <mxGraphModel dx="1193" dy="816" grid="1" gridSize="10" guides="1" tooltips="1" connect="1" arrows="1" fold="1" page="1" pageScale="1" pageWidth="827" pageHeight="1169" math="0" shadow="0">
      <root>
        <mxCell id="0" />
        <mxCell id="1" parent="0" />
        <mxCell id="X9K4FgSgg8DIqhke1Ise-1" value="&lt;font style=&quot;font-size: 22px;&quot;&gt;Redis&lt;/font&gt;" style="text;html=1;strokeColor=none;fillColor=none;align=center;verticalAlign=middle;whiteSpace=wrap;rounded=0;" vertex="1" parent="1">
          <mxGeometry x="601.4300000000001" y="575" width="80" height="30" as="geometry" />
        </mxCell>
        <mxCell id="X9K4FgSgg8DIqhke1Ise-2" value="" style="image;sketch=0;aspect=fixed;html=1;points=[];align=center;fontSize=12;image=img/lib/mscae/Cache_Redis_Product.svg;" vertex="1" parent="1">
          <mxGeometry x="458.57" y="530" width="142.86" height="120" as="geometry" />
        </mxCell>
        <mxCell id="X9K4FgSgg8DIqhke1Ise-3" value="" style="image;aspect=fixed;html=1;points=[];align=center;fontSize=12;image=img/lib/azure2/databases/Azure_Database_PostgreSQL_Server.svg;" vertex="1" parent="1">
          <mxGeometry x="880" y="220" width="97.5" height="130" as="geometry" />
        </mxCell>
        <mxCell id="X9K4FgSgg8DIqhke1Ise-4" value="&lt;font style=&quot;font-size: 22px;&quot;&gt;Postgres&lt;/font&gt;" style="text;html=1;strokeColor=none;fillColor=none;align=center;verticalAlign=middle;whiteSpace=wrap;rounded=0;" vertex="1" parent="1">
          <mxGeometry x="858.75" y="180" width="140" height="30" as="geometry" />
        </mxCell>
        <mxCell id="X9K4FgSgg8DIqhke1Ise-5" style="edgeStyle=orthogonalEdgeStyle;rounded=0;orthogonalLoop=1;jettySize=auto;html=1;entryX=0.045;entryY=0.494;entryDx=0;entryDy=0;entryPerimeter=0;shape=flexArrow;" edge="1" parent="1" source="X9K4FgSgg8DIqhke1Ise-10" target="X9K4FgSgg8DIqhke1Ise-3">
          <mxGeometry relative="1" as="geometry" />
        </mxCell>
        <mxCell id="X9K4FgSgg8DIqhke1Ise-6" value="Text" style="edgeLabel;html=1;align=center;verticalAlign=middle;resizable=0;points=[];" connectable="0" vertex="1" parent="X9K4FgSgg8DIqhke1Ise-5">
          <mxGeometry x="-0.1328" y="7" relative="1" as="geometry">
            <mxPoint as="offset" />
          </mxGeometry>
        </mxCell>
        <mxCell id="X9K4FgSgg8DIqhke1Ise-7" value="&lt;font style=&quot;font-size: 14px;&quot;&gt;entity storage&lt;/font&gt;" style="edgeLabel;html=1;align=center;verticalAlign=middle;resizable=0;points=[];" connectable="0" vertex="1" parent="X9K4FgSgg8DIqhke1Ise-5">
          <mxGeometry x="-0.1108" y="7" relative="1" as="geometry">
            <mxPoint as="offset" />
          </mxGeometry>
        </mxCell>
        <mxCell id="X9K4FgSgg8DIqhke1Ise-8" style="edgeStyle=orthogonalEdgeStyle;rounded=0;orthogonalLoop=1;jettySize=auto;html=1;entryX=0.499;entryY=0.02;entryDx=0;entryDy=0;entryPerimeter=0;shape=flexArrow;" edge="1" parent="1" source="X9K4FgSgg8DIqhke1Ise-10" target="X9K4FgSgg8DIqhke1Ise-2">
          <mxGeometry relative="1" as="geometry" />
        </mxCell>
        <mxCell id="X9K4FgSgg8DIqhke1Ise-9" value="&lt;font style=&quot;font-size: 14px;&quot;&gt;JWT Storage&lt;/font&gt;" style="edgeLabel;html=1;align=center;verticalAlign=middle;resizable=0;points=[];" connectable="0" vertex="1" parent="X9K4FgSgg8DIqhke1Ise-8">
          <mxGeometry x="-0.2131" y="6" relative="1" as="geometry">
            <mxPoint x="-6" y="-1" as="offset" />
          </mxGeometry>
        </mxCell>
        <mxCell id="X9K4FgSgg8DIqhke1Ise-10" value="" style="rounded=1;whiteSpace=wrap;html=1;" vertex="1" parent="1">
          <mxGeometry x="340" y="120" width="380" height="330" as="geometry" />
        </mxCell>
        <mxCell id="X9K4FgSgg8DIqhke1Ise-11" value="&lt;font style=&quot;font-size: 25px;&quot;&gt;MONOLITH &lt;br&gt;&lt;/font&gt;" style="text;html=1;strokeColor=none;fillColor=none;align=center;verticalAlign=middle;whiteSpace=wrap;rounded=0;" vertex="1" parent="1">
          <mxGeometry x="464.28" y="140" width="145.72" height="30" as="geometry" />
        </mxCell>
        <mxCell id="X9K4FgSgg8DIqhke1Ise-12" value="&lt;font style=&quot;font-size: 15px;&quot;&gt;ORDER &lt;br&gt;SERVICE&lt;/font&gt;" style="rounded=0;whiteSpace=wrap;html=1;" vertex="1" parent="1">
          <mxGeometry x="360" y="190" width="140" height="60" as="geometry" />
        </mxCell>
        <mxCell id="X9K4FgSgg8DIqhke1Ise-14" value="&lt;font style=&quot;font-size: 15px;&quot;&gt;PRODUCT&lt;br&gt;SERVICE&lt;/font&gt;" style="rounded=0;whiteSpace=wrap;html=1;" vertex="1" parent="1">
          <mxGeometry x="360" y="350" width="140" height="60" as="geometry" />
        </mxCell>
        <mxCell id="X9K4FgSgg8DIqhke1Ise-15" value="&lt;font style=&quot;font-size: 15px;&quot;&gt;CART&lt;br&gt;SERVICE&lt;/font&gt;" style="rounded=0;whiteSpace=wrap;html=1;" vertex="1" parent="1">
          <mxGeometry x="560" y="190" width="141.43" height="60" as="geometry" />
        </mxCell>
        <mxCell id="X9K4FgSgg8DIqhke1Ise-16" value="&lt;font style=&quot;font-size: 15px;&quot;&gt;AUTHENTICATION&lt;br&gt;SERVICE&lt;/font&gt;" style="rounded=0;whiteSpace=wrap;html=1;" vertex="1" parent="1">
          <mxGeometry x="460" y="270" width="141.43" height="60" as="geometry" />
        </mxCell>
        <mxCell id="X9K4FgSgg8DIqhke1Ise-17" value="&lt;font style=&quot;font-size: 15px;&quot;&gt;REPORT&lt;br&gt;SERVICE&lt;/font&gt;" style="rounded=0;whiteSpace=wrap;html=1;" vertex="1" parent="1">
          <mxGeometry x="560" y="350" width="141.43" height="60" as="geometry" />
        </mxCell>
        <mxCell id="X9K4FgSgg8DIqhke1Ise-20" value="&lt;div&gt;&lt;font style=&quot;font-size: 16px;&quot;&gt;Client&lt;/font&gt;&lt;/div&gt;" style="sketch=0;outlineConnect=0;fontColor=#232F3E;gradientColor=none;strokeColor=#232F3E;fillColor=#ffffff;dashed=0;verticalLabelPosition=bottom;verticalAlign=top;align=center;html=1;fontSize=12;fontStyle=0;aspect=fixed;shape=mxgraph.aws4.resourceIcon;resIcon=mxgraph.aws4.client;" vertex="1" parent="1">
          <mxGeometry x="100" y="230" width="110" height="110" as="geometry" />
        </mxCell>
        <mxCell id="X9K4FgSgg8DIqhke1Ise-32" value="" style="shape=flexArrow;endArrow=classic;startArrow=classic;html=1;rounded=0;entryX=0;entryY=0.5;entryDx=0;entryDy=0;" edge="1" parent="1" source="X9K4FgSgg8DIqhke1Ise-20" target="X9K4FgSgg8DIqhke1Ise-10">
          <mxGeometry width="100" height="100" relative="1" as="geometry">
            <mxPoint x="210" y="330" as="sourcePoint" />
            <mxPoint x="310" y="230" as="targetPoint" />
          </mxGeometry>
        </mxCell>
        <mxCell id="X9K4FgSgg8DIqhke1Ise-33" value="&lt;font style=&quot;font-size: 14px;&quot;&gt;Response&lt;/font&gt;" style="text;html=1;strokeColor=none;fillColor=none;align=center;verticalAlign=middle;whiteSpace=wrap;rounded=0;" vertex="1" parent="1">
          <mxGeometry x="230" y="240" width="90" height="40" as="geometry" />
        </mxCell>
        <mxCell id="X9K4FgSgg8DIqhke1Ise-34" value="Request" style="text;html=1;strokeColor=none;fillColor=none;align=center;verticalAlign=middle;whiteSpace=wrap;rounded=0;" vertex="1" parent="1">
          <mxGeometry x="230" y="290" width="90" height="40" as="geometry" />
        </mxCell>
      </root>
    </mxGraphModel>
  </diagram>
</mxfile>
